<svg width="100%" height="100%" viewBox="0 0 20 21" version="1.1" xmlns="http://www.w3.org/2000/svg" xmlns:xlink="http://www.w3.org/1999/xlink" xml:space="preserve" style="fill-rule:evenodd;clip-rule:evenodd;stroke-linejoin:round;stroke-miterlimit:2;">
    <path d="M0,15.5C0,18.25 2.25,20.5 5,20.5L15,20.5C17.75,20.5 20,18.25 20,15.5L20,5.5C20,2.75 17.75,0.5 15,0.5L5,0.5C2.25,0.5 0,2.75 0,5.5L0,15.5ZM2,15.5L2,5.5C2,3.85 3.35,2.5 5,2.5C5,2.5 15,2.5 15,2.5C16.65,2.5 18,3.85 18,5.5C18,5.5 18,15.5 18,15.5C18,17.15 16.65,18.5 15,18.5C15,18.5 5,18.5 5,18.5C3.35,18.5 2,17.15 2,15.5Z"></path>
    <path d="M5,16L9,16C9.552,16 10,15.552 10,15C10,14.448 9.552,14 9,14L5,14C4.448,14 4,14.448 4,15C4,15.552 4.448,16 5,16Z"></path>
    <path d="M5,7L11,7C11.552,7 12,6.552 12,6C12,5.448 11.552,5 11,5L5,5C4.448,5 4,5.448 4,6C4,6.552 4.448,7 5,7Z"></path>
    <path d="M5,11.5L15,11.5C15.552,11.5 16,11.052 16,10.5C16,9.948 15.552,9.5 15,9.5L5,9.5C4.448,9.5 4,9.948 4,10.5C4,11.052 4.448,11.5 5,11.5Z"></path>
</svg>