<svg width="100%" height="100%" viewBox="0 0 16 20" version="1.1" xmlns="http://www.w3.org/2000/svg" xmlns:xlink="http://www.w3.org/1999/xlink" xml:space="preserve" style="fill-rule:evenodd;clip-rule:evenodd;stroke-linejoin:round;stroke-miterlimit:2;">
    <path d="M11,0L5,0C2.25,0 0,2.25 0,5L0,17.9C0,18.86 0.559,19.561 1.255,19.849C1.964,20.143 2.857,20.045 3.544,19.269C3.541,19.272 8,14.47 8,14.47C8,14.47 12.459,19.272 12.459,19.272C13.145,20.046 14.036,20.142 14.745,19.849C15.441,19.561 16,18.86 16,17.9C16,17.9 16,5 16,5C16,2.25 13.75,0 11,0ZM13.986,17.972C13.974,17.963 13.961,17.952 13.953,17.941C13.946,17.934 13.939,17.927 13.933,17.92L8.733,12.32C8.544,12.116 8.278,12 8,12C7.722,12 7.456,12.116 7.267,12.32L2.067,17.92C2.061,17.927 2.054,17.934 2.047,17.941C2.039,17.952 2.026,17.963 2.014,17.972C2.007,17.951 2,17.923 2,17.9L2,5C2,3.35 3.35,2 5,2L11,2C12.65,2 14,3.35 14,5L14,17.9C14,17.923 13.993,17.951 13.986,17.972Z"></path>
</svg>