<svg width="100%" height="100%" viewBox="0 0 20 21" version="1.1" xmlns="http://www.w3.org/2000/svg" xmlns:xlink="http://www.w3.org/1999/xlink" xml:space="preserve" style="fill-rule:evenodd;clip-rule:evenodd;stroke-linejoin:round;stroke-miterlimit:2;">
    <path d="M10,20.5C15.523,20.5 20,16.023 20,10.5C20,4.977 15.523,0.5 10,0.5C4.477,0.5 0,4.977 0,10.5C0,16.023 4.477,20.5 10,20.5ZM10,18.5C5.582,18.5 2,14.918 2,10.5C2,6.082 5.582,2.5 10,2.5C14.418,2.5 18,6.082 18,10.5C18,14.918 14.418,18.5 10,18.5Z"></path>
    <path d="M11.891,13.057C12.21,12.96 12.46,12.71 12.557,12.391L13.957,7.791C14.064,7.438 13.968,7.054 13.707,6.793C13.446,6.532 13.062,6.436 12.709,6.543L8.109,7.943C7.79,8.04 7.54,8.29 7.443,8.609L6.043,13.209C5.936,13.562 6.032,13.946 6.293,14.207C6.554,14.468 6.938,14.564 7.291,14.457L11.891,13.057ZM10.799,11.299L8.503,11.997C8.503,11.997 9.201,9.701 9.201,9.701C9.201,9.701 11.497,9.003 11.497,9.003L10.799,11.299Z"></path>
</svg>