<svg width="24" height="24" viewBox="2 2 22 22" xmlns="http://www.w3.org/2000/svg">
<path d="M18.3984 5.12109C18.7266 5.12109 19.0312 5.17969 19.3125 5.29688C19.5938 5.41406 19.8438 5.58203 20.0625 5.80078C20.2812 6.01953 20.4453 6.26562 20.5547 6.53906C20.6641 6.8125 20.7266 7.12109 20.7422 7.46484C20.7422 7.77734 20.6836 8.07813 20.5664 8.36719C20.4492 8.65625 20.2812 8.91016 20.0625 9.12891L10.7578 18.4453C10.5391 18.6641 10.2852 18.832 9.99609 18.9492C9.70703 19.0664 9.40625 19.1289 9.09375 19.1367C8.78125 19.1367 8.48047 19.0781 8.19141 18.9609C7.90234 18.8438 7.64844 18.6719 7.42969 18.4453L3.1875 14.2031C2.96875 13.9844 2.80078 13.7305 2.68359 13.4414C2.56641 13.1523 2.50391 12.8516 2.49609 12.5391C2.49609 12.2109 2.55859 11.9062 2.68359 11.625C2.80859 11.3438 2.97656 11.0937 3.1875 10.875C3.39844 10.6563 3.64453 10.4922 3.92578 10.3828C4.20703 10.2734 4.51563 10.2109 4.85156 10.1953C5.16406 10.1953 5.46484 10.2539 5.75391 10.3711C6.04297 10.4883 6.29688 10.6563 6.51562 10.875L9.09375 13.4531L16.7344 5.80078C16.9531 5.58203 17.207 5.41406 17.4961 5.29688C17.7852 5.17969 18.0859 5.12109 18.3984 5.12109Z"></path>
</svg>