<svg width="48" height="40" viewBox="4 0 40 40" fill="none" xmlns="http://www.w3.org/2000/svg">
<g id="Property 1=Default">
<path id="Discord" d="M35.107 11.01C33.0356 10.071 30.8208 9.38856 28.5052 9C28.2208 9.49815 27.8886 10.1681 27.6595 10.7011C25.198 10.3425 22.7591 10.3425 20.3429 10.7011C20.1138 10.1681 19.7741 9.49815 19.4872 9C17.1691 9.38859 14.9517 10.0735 12.8803 11.015C8.7022 17.132 7.5696 23.0972 8.13588 28.9776C10.907 30.9826 13.5925 32.2005 16.2328 32.9976C16.8846 32.1283 17.466 31.2043 17.9669 30.2304C17.013 29.8792 16.0994 29.4459 15.2361 28.9428C15.4651 28.7784 15.6891 28.6065 15.9056 28.4296C21.1709 30.8157 26.8918 30.8157 32.0943 28.4296C32.3133 28.6065 32.5373 28.7784 32.7638 28.9428C31.898 29.4484 30.9818 29.8817 30.028 30.2329C30.5288 31.2043 31.1077 32.1308 31.7621 33C34.4048 32.203 37.0929 30.9851 39.864 28.9776C40.5285 22.1607 38.7289 16.2504 35.107 11.0101V11.01ZM18.6842 25.3612C17.1036 25.3612 15.8074 23.9315 15.8074 22.1905C15.8074 20.4496 17.076 19.0175 18.6842 19.0175C20.2925 19.0175 21.5888 20.4471 21.5611 22.1905C21.5636 23.9315 20.2926 25.3612 18.6842 25.3612ZM29.3157 25.3612C27.7351 25.3612 26.4388 23.9315 26.4388 22.1905C26.4388 20.4496 27.7074 19.0175 29.3157 19.0175C30.924 19.0175 32.2202 20.4471 32.1925 22.1905C32.1925 23.9315 30.924 25.3612 29.3157 25.3612Z"></path>
</g>
</svg>