<svg width="100%" height="100%" viewBox="0 0 20 21" version="1.1" xmlns="http://www.w3.org/2000/svg" xmlns:xlink="http://www.w3.org/1999/xlink" xml:space="preserve" style="fill-rule:evenodd;clip-rule:evenodd;stroke-linejoin:round;stroke-miterlimit:2;">
    <path d="M20,5.5C20,2.75 17.75,0.5 15,0.5L5,0.5C2.25,0.5 0,2.75 0,5.5L0,15.5C0,18.25 2.25,20.5 5,20.5L15,20.5C17.75,20.5 20,18.25 20,15.5L20,5.5ZM6,18.5L5,18.5C3.35,18.5 2,17.15 2,15.5L2,14.5L6,14.5L6,18.5ZM18,14.5L18,15.5C18,17.15 16.65,18.5 15,18.5L8,18.5L8,14.5L18,14.5ZM2,8.5L2,12.5L6,12.5L6,8.5L2,8.5ZM8,8.5L8,12.5L18,12.5L18,8.5L8,8.5ZM6,2.5L6,6.5L2,6.5L2,5.5C2,3.85 3.35,2.5 5,2.5L6,2.5ZM8,2.5L15,2.5C16.65,2.5 18,3.85 18,5.5L18,6.5L8,6.5L8,2.5Z"></path>
</svg>