<svg width="100%" height="100%" viewBox="0 0 20 20" version="1.1" xmlns="http://www.w3.org/2000/svg" xmlns:xlink="http://www.w3.org/1999/xlink" xml:space="preserve" style="fill-rule:evenodd;clip-rule:evenodd;stroke-linejoin:round;stroke-miterlimit:2;">
    <path d="M12.78,14.127L17.898,19.245C18.27,19.617 18.873,19.617 19.245,19.245C19.617,18.873 19.617,18.27 19.245,17.898L14.127,12.78C15.124,11.493 15.714,9.87 15.714,8.095C15.714,3.85 12.34,0.476 8.095,0.476C3.85,0.476 0.476,3.85 0.476,8.095C0.476,12.34 3.85,15.714 8.095,15.714C9.87,15.714 11.493,15.124 12.78,14.127ZM13.81,8.095C13.81,11.279 11.279,13.81 8.095,13.81C4.912,13.81 2.381,11.279 2.381,8.095C2.381,4.912 4.912,2.381 8.095,2.381C11.279,2.381 13.81,4.912 13.81,8.095Z"></path>
</svg>