<svg width="40" height="40" viewBox="0 0 40 40" fill="none" xmlns="http://www.w3.org/2000/svg">
    <path id="Github" fill-rule="evenodd" clip-rule="evenodd" d="M20.2135 8C13.4597 8 8 13.5 8 20.3042C8 25.7432 11.4982 30.3472 16.3512 31.9767C16.958 32.0992 17.1802 31.712 17.1802 31.3862C17.1802 31.101 17.1602 30.1232 17.1602 29.1045C13.7627 29.838 13.0552 27.6377 13.0552 27.6377C12.5092 26.2118 11.7002 25.8452 11.7002 25.8452C10.5882 25.0915 11.7812 25.0915 11.7812 25.0915C13.0147 25.173 13.662 26.3545 13.662 26.3545C14.7537 28.2285 16.513 27.699 17.2207 27.373C17.3217 26.5785 17.6455 26.0285 17.9892 25.723C15.2795 25.4377 12.4285 24.3785 12.4285 19.6522C12.4285 18.3077 12.9135 17.2077 13.682 16.3522C13.5608 16.0468 13.136 14.7835 13.8035 13.0927C13.8035 13.0927 14.8347 12.7667 17.16 14.3557C18.1555 14.0865 19.1822 13.9495 20.2135 13.9482C21.2447 13.9482 22.296 14.091 23.2667 14.3557C25.5922 12.7667 26.6235 13.0927 26.6235 13.0927C27.291 14.7835 26.866 16.0468 26.7447 16.3522C27.5335 17.2077 27.9985 18.3077 27.9985 19.6522C27.9985 24.3785 25.1475 25.4172 22.4175 25.723C22.8625 26.11 23.2465 26.8432 23.2465 28.0045C23.2465 29.6545 23.2265 30.9787 23.2265 31.386C23.2265 31.712 23.449 32.0992 24.0555 31.977C28.9085 30.347 32.4067 25.7432 32.4067 20.3042C32.4267 13.5 26.947 8 20.2135 8Z"></path>
</svg>