<svg width="100%" height="100%" viewBox="4 0 40 40" version="1.1" xmlns="http://www.w3.org/2000/svg" style="fill-rule:evenodd;clip-rule:evenodd;stroke-linejoin:round;stroke-miterlimit:2;">
    <g id="Property-1-Default">
        <path d="M24,10C29.523,10 34,14.477 34,20C34,25.523 29.523,30 24,30C18.481,30 14,25.519 14,20C14,14.481 18.481,10 24,10ZM24,12L24,28C19.585,28 16,24.415 16,20C16,15.585 19.585,12 24,12Z"></path>
        <path d="M23,33L23,35C23,35.552 23.448,36 24,36C24.552,36 25,35.552 25,35L25,33C25,32.448 24.552,32 24,32C23.448,32 23,32.448 23,33Z"></path>
        <path d="M23,5L23,7C23,7.552 23.448,8 24,8C24.552,8 25,7.552 25,7L25,5C25,4.448 24.552,4 24,4C23.448,4 23,4.448 23,5Z"></path>
        <path d="M11,19L9,19C8.448,19 8,19.448 8,20C8,20.552 8.448,21 9,21L11,21C11.552,21 12,20.552 12,20C12,19.448 11.552,19 11,19Z"></path>
        <path d="M39,19L37,19C36.448,19 36,19.448 36,20C36,20.552 36.448,21 37,21L39,21C39.552,21 40,20.552 40,20C40,19.448 39.552,19 39,19Z"></path>
        <path d="M15.515,10.1L14.101,8.686C13.71,8.296 13.077,8.296 12.686,8.686C12.296,9.077 12.296,9.71 12.686,10.101L14.1,11.515C14.491,11.905 15.124,11.905 15.515,11.515C15.905,11.124 15.905,10.491 15.515,10.1Z"></path>
        <path d="M35.314,29.899L33.899,28.485C33.509,28.095 32.876,28.095 32.485,28.485C32.095,28.876 32.095,29.509 32.485,29.9L33.9,31.314C34.29,31.704 34.924,31.704 35.314,31.314C35.704,30.923 35.704,30.29 35.314,29.899Z"></path>
        <path d="M14.1,28.485L12.686,29.899C12.296,30.29 12.296,30.923 12.686,31.314C13.077,31.704 13.71,31.704 14.101,31.314L15.515,29.9C15.905,29.509 15.905,28.876 15.515,28.485C15.124,28.095 14.491,28.095 14.1,28.485Z"></path>
        <path d="M33.899,8.686L32.485,10.1C32.095,10.491 32.095,11.124 32.485,11.515C32.876,11.905 33.509,11.905 33.9,11.515L35.314,10.101C35.704,9.71 35.704,9.077 35.314,8.686C34.923,8.296 34.29,8.296 33.899,8.686Z"></path>
    </g>
</svg>