<svg width="100%" height="100%" viewBox="0 0 18 20" version="1.1" xmlns="http://www.w3.org/2000/svg" xmlns:xlink="http://www.w3.org/1999/xlink" xml:space="preserve" style="fill-rule:evenodd;clip-rule:evenodd;stroke-linejoin:round;stroke-miterlimit:2;">
    <path d="M18,13.5L18,6.5C18,5.434 17.376,4.38 16.466,3.915C16.48,3.922 10.526,0.449 10.526,0.449C9.606,-0.149 8.391,-0.148 7.47,0.452C7.474,0.449 1.496,3.936 1.496,3.936C1.479,3.946 1.462,3.957 1.445,3.968C0.558,4.559 0,5.465 0,6.5L0,13.5C0,14.566 0.624,15.62 1.534,16.085C1.52,16.078 7.474,19.551 7.474,19.551C8.394,20.149 9.609,20.148 10.53,19.548C10.526,19.551 16.48,16.078 16.48,16.078C17.381,15.61 18,14.561 18,13.5ZM2,7.358L2,13.5C2,13.827 2.167,14.165 2.447,14.306C2.466,14.315 2.485,14.325 2.504,14.336L8,17.542L8,10.817C7.817,10.748 7.641,10.659 7.474,10.551L2,7.358ZM16,7.358C14.559,8.198 10.527,10.55 10.53,10.548C10.362,10.658 10.184,10.747 10,10.817L10,17.542L15.496,14.336C15.515,14.325 15.534,14.315 15.553,14.306C15.833,14.165 16,13.827 16,13.5L16,7.358ZM5.096,4.152C4.126,4.718 3.217,5.248 2.785,5.5L8.504,8.836C8.521,8.846 8.538,8.857 8.555,8.868C8.822,9.046 9.178,9.046 9.445,8.868C9.462,8.857 9.479,8.846 9.496,8.836L11.345,7.758L5.096,4.152ZM15.215,5.5L13.335,6.597L7.085,2.991C7.905,2.513 8.504,2.164 8.504,2.164C8.521,2.154 8.538,2.143 8.555,2.132C8.822,1.954 9.178,1.954 9.445,2.132C9.462,2.143 9.479,2.154 9.496,2.164L15.215,5.5Z"></path>
</svg>