<svg width="100%" height="100%" viewBox="0 0 20 20" version="1.1" xmlns="http://www.w3.org/2000/svg" xmlns:xlink="http://www.w3.org/1999/xlink" xml:space="preserve" style="fill-rule:evenodd;clip-rule:evenodd;stroke-linejoin:round;stroke-miterlimit:2;">
    <path d="M11.423,0.244C11.184,0.006 10.826,-0.066 10.514,0.063C10.203,0.192 10,0.496 10,0.833L10,4.228C8.381,4.413 4.752,5.166 2.34,8.213C0.987,9.922 0,12.355 0,15.833C0,16.157 0.187,16.451 0.48,16.588C0.773,16.725 1.118,16.681 1.367,16.474C1.367,16.474 5.556,12.953 10,12.539C10,12.539 10,15.833 10,15.833C10,16.17 10.203,16.474 10.514,16.603C10.826,16.732 11.184,16.661 11.423,16.423L18.923,8.923C19.248,8.597 19.248,8.07 18.923,7.744L11.423,0.244ZM11.667,2.845L17.155,8.333C17.155,8.333 11.667,13.821 11.667,13.821C11.667,13.821 11.667,11.667 11.667,11.667C11.667,11.206 11.294,10.833 10.833,10.833C7.265,10.833 3.692,12.838 1.762,14.129C2.008,12.01 2.714,10.426 3.647,9.248C6.342,5.843 10.836,5.833 10.836,5.833C11.295,5.832 11.667,5.459 11.667,5L11.667,2.845Z"></path>
</svg>