<svg width="100%" height="100%" viewBox="0 0 20 21" version="1.1" xmlns="http://www.w3.org/2000/svg" xmlns:xlink="http://www.w3.org/1999/xlink" xml:space="preserve" style="fill-rule:evenodd;clip-rule:evenodd;stroke-linejoin:round;stroke-miterlimit:2;">
    <path d="M17,9.5C18.65,9.5 20,8.15 20,6.5L20,3.5C20,1.85 18.65,0.5 17,0.5L14,0.5C12.35,0.5 11,1.85 11,3.5L11,6.5C11,8.15 12.35,9.5 14,9.5C14,9.5 17,9.5 17,9.5ZM17,7.5L14,7.5C13.45,7.5 13,7.05 13,6.5C13,6.5 13,3.5 13,3.5C13,2.95 13.45,2.5 14,2.5C14,2.5 17,2.5 17,2.5C17.55,2.5 18,2.95 18,3.5C18,3.5 18,6.5 18,6.5C18,7.05 17.55,7.5 17,7.5Z"></path>
    <path d="M6,20.5C7.65,20.5 9,19.15 9,17.5C9,17.5 9,14.5 9,14.5C9,12.85 7.65,11.5 6,11.5C6,11.5 3,11.5 3,11.5C1.35,11.5 0,12.85 0,14.5L0,17.5C0,19.15 1.35,20.5 3,20.5L6,20.5ZM6,18.5L3,18.5C2.45,18.5 2,18.05 2,17.5C2,17.5 2,14.5 2,14.5C2,13.95 2.45,13.5 3,13.5L6,13.5C6.55,13.5 7,13.95 7,14.5L7,17.5C7,18.05 6.55,18.5 6,18.5Z"></path>
    <path d="M20,16C20,13.515 17.985,11.5 15.5,11.5C13.015,11.5 11,13.515 11,16C11,18.485 13.015,20.5 15.5,20.5C17.985,20.5 20,18.485 20,16ZM18,16C18,17.381 16.881,18.5 15.5,18.5C14.119,18.5 13,17.381 13,16C13,14.619 14.119,13.5 15.5,13.5C16.881,13.5 18,14.619 18,16Z"></path>
    <path d="M9,5C9,2.515 6.985,0.5 4.5,0.5C2.015,0.5 0,2.515 0,5C0,7.485 2.015,9.5 4.5,9.5C6.985,9.5 9,7.485 9,5ZM7,5C7,6.381 5.881,7.5 4.5,7.5C3.119,7.5 2,6.381 2,5C2,3.619 3.119,2.5 4.5,2.5C5.881,2.5 7,3.619 7,5Z"></path>
</svg>