<svg width="48" height="40" viewBox="0 0 48 40" fill="none" xmlns="http://www.w3.org/2000/svg">
    <path id="Vector" d="M40.75 11.75C40.3 10.25 39.25 9.05 37.75 8.75C35.05 8 24.25 8 24.25 8C24.25 8 13.45 8 10.75 8.75C9.25 9.2 8.05 10.25 7.75 11.75C7 14.45 7 20 7 20C7 20 7 25.55 7.75 28.25C8.2 29.75 9.25 30.95 10.75 31.25C13.45 32 24.25 32 24.25 32C24.25 32 35.05 32 37.75 31.25C39.25 30.8 40.45 29.75 40.75 28.25C41.5 25.55 41.5 20 41.5 20C41.5 20 41.5 14.45 40.75 11.75ZM20.8 25.1V14.9L29.8 20L20.8 25.1Z"></path>
</svg>