<svg width="100%" height="100%" viewBox="0 0 24 24" version="1.1" xmlns="http://www.w3.org/2000/svg" xmlns:xlink="http://www.w3.org/1999/xlink" xml:space="preserve" style="fill-rule:evenodd;clip-rule:evenodd;stroke-linejoin:round;stroke-miterlimit:2;">
    <g transform="matrix(0.20202,0,0,0.20202,3.71717,4)">
        <path d="M7.75,123.97L7.75,99C19.169,99 24.873,93.311 24.873,86.304C24.873,81.775 22.497,77.797 18.924,75.55C7.544,68.261 0,55.505 0,41C0,18.371 18.372,-0 41,0C63.628,-0 82,18.371 82,41C82,55.505 74.456,68.261 63.076,75.55C59.504,77.797 57.127,81.775 57.127,86.304C57.127,93.311 62.831,99 74.25,99L74.25,123.97"></path>
    </g>
</svg>