<?xml version="1.0" encoding="UTF-8" standalone="no"?>

<svg width="100%" height="100%" viewBox="0 0 60 66" version="1.1" xmlns="http://www.w3.org/2000/svg" xmlns:xlink="http://www.w3.org/1999/xlink" xml:space="preserve" xmlns:serif="http://www.serif.com/" style="fill-rule:evenodd;clip-rule:evenodd;stroke-linecap:round;stroke-linejoin:round;">
    <path d="M26,1.309C28.475,-0.12 31.525,-0.12 34,1.309L55.445,13.691C57.92,15.12 59.445,17.761 59.445,20.619L59.445,45.381C59.445,48.239 57.92,50.88 55.445,52.309L34,64.691C31.525,66.12 28.475,66.12 26,64.691L4.555,52.309C2.08,50.88 0.555,48.239 0.555,45.381L0.555,20.619C0.555,17.761 2.08,15.12 4.555,13.691L26,1.309Z" style="fill:rgb(255,212,50);fill-rule:nonzero;"></path>
    <g transform="matrix(1,0,0,1,14,16)">
        <path d="M30.222,23.222L30.222,10.778C30.222,9.533 29.511,8.289 28.445,7.756L17.778,1.533C16.711,0.822 15.289,0.822 14.222,1.533L3.556,7.756C2.489,8.467 1.778,9.533 1.778,10.778L1.778,23.222C1.778,24.467 2.489,25.711 3.556,26.244L14.222,32.467C15.289,33.178 16.711,33.178 17.778,32.467L28.445,26.244C29.511,25.711 30.222,24.467 30.222,23.222Z" style="fill:none;fill-rule:nonzero;stroke:rgb(0,29,56);stroke-width:2px;"></path>
    </g>
    <g transform="matrix(1,0,0,1,14,16)">
        <path d="M16,32.467L16,17.178" style="fill:none;fill-rule:nonzero;stroke:rgb(0,29,56);stroke-width:2px;"></path>
    </g>
    <g transform="matrix(1,0,0,1,14,16)">
        <path d="M2.5,9.5L14.222,16.467C15.289,17.178 16.711,17.178 17.778,16.467L29.5,9.5" style="fill:none;fill-rule:nonzero;stroke:rgb(0,29,56);stroke-width:2px;"></path>
    </g>
    <g transform="matrix(1,0,0,1,14,16)">
        <path d="M22.934,12.556L9.067,4.556" style="fill:none;fill-rule:nonzero;stroke:rgb(0,29,56);stroke-width:2px;"></path>
    </g>
</svg>